<svg xmlns="http://www.w3.org/2000/svg" viewBox="-88 -88 496 496">
  <!-- AI4AV social profile picture: the crossword mark on a white field,
       geometrically centered. Frame and letters identical to
       ai4av-logo.svg (solid-edge frame, Futura Bold A/I/V, teal A). -->
  <rect x="-88" y="-88" width="496" height="496" fill="#FFFFFF"/>
  <g stroke-width="20" stroke-linecap="butt">
    <line x1="-10" y1="160" x2="330" y2="160" stroke="#2F9E44"/>
    <line x1="320" y1="-10" x2="320" y2="170" stroke="#2F9E44"/>
    <line x1="170" y1="0" x2="330" y2="0" stroke="#2F9E44"/>
    <line x1="-10" y1="0" x2="170" y2="0" stroke="#2F9E44" stroke-dasharray="20 20" stroke-dashoffset="0"/>
    <line x1="0" y1="-10" x2="0" y2="170" stroke="#2F9E44" stroke-dasharray="20 20" stroke-dashoffset="0"/>
    <line x1="-10" y1="320" x2="170" y2="320" stroke="#2563EB"/>
    <line x1="160" y1="-10" x2="160" y2="330" stroke="#2563EB"/>
    <line x1="0" y1="170" x2="0" y2="330" stroke="#2563EB"/>
    <line x1="-10" y1="0" x2="170" y2="0" stroke="#2563EB" stroke-dasharray="20 20" stroke-dashoffset="20"/>
    <line x1="0" y1="-10" x2="0" y2="170" stroke="#2563EB" stroke-dasharray="20 20" stroke-dashoffset="20"/>
  </g>
  <g>
    <path fill="#0D9488" transform="translate(80 124.486) scale(0.118 -0.118) translate(-401 0)" d="M489 280 401 531 313 280ZM541 131H261L216 0H7L294 754H508L795 0H586Z"/>
    <path fill="#2F9E44" transform="translate(240 124.486) scale(0.118 -0.118) translate(-177 0)" d="M275 754V0H79V754Z"/>
    <path fill="#2563EB" transform="translate(80 284.486) scale(0.118 -0.118) translate(-395.5 0)" d="M213 754 395 295 578 754H791L473 0H317L0 754Z"/>
  </g>
</svg>
