<svg xmlns="http://www.w3.org/2000/svg" viewBox="-28 -28 376 376">
  <!-- AI4AV - Pixel: dash = stroke width, one exact square grid -->
  <g>
    <line x1="-10" y1="0" x2="330" y2="0" stroke="#2F9E44" stroke-width="20" stroke-linecap="butt" stroke-dasharray="20 20" stroke-dashoffset="0"/>
    <line x1="-10" y1="160" x2="330" y2="160" stroke="#2F9E44" stroke-width="20" stroke-linecap="butt" stroke-dasharray="20 20" stroke-dashoffset="0"/>
    <line x1="0" y1="-10" x2="0" y2="170" stroke="#2F9E44" stroke-width="20" stroke-linecap="butt" stroke-dasharray="20 20" stroke-dashoffset="0"/>
    <line x1="320" y1="-10" x2="320" y2="170" stroke="#2F9E44" stroke-width="20" stroke-linecap="butt" stroke-dasharray="20 20" stroke-dashoffset="0"/>
    <line x1="-10" y1="0" x2="170" y2="0" stroke="#2563EB" stroke-width="20" stroke-linecap="butt" stroke-dasharray="20 20" stroke-dashoffset="20"/>
    <line x1="-10" y1="320" x2="170" y2="320" stroke="#2563EB" stroke-width="20" stroke-linecap="butt" stroke-dasharray="20 20" stroke-dashoffset="20"/>
    <line x1="0" y1="-10" x2="0" y2="330" stroke="#2563EB" stroke-width="20" stroke-linecap="butt" stroke-dasharray="20 20" stroke-dashoffset="20"/>
    <line x1="160" y1="-10" x2="160" y2="330" stroke="#2563EB" stroke-width="20" stroke-linecap="butt" stroke-dasharray="20 20" stroke-dashoffset="20"/>
  </g>
  <g fill="#1A1A1A">
    <path d="M70,39.4 L90,39.4 L115.984,120.6 L95.984,120.6 Z"/>
    <path d="M70,39.4 L90,39.4 L64.016,120.6 L44.016,120.6 Z"/>
    <path d="M56.929,80.244 L103.071,80.244 L103.071,99.244 L56.929,99.244 Z"/>
    <path d="M230.5,39.4 L249.5,39.4 L249.5,120.6 L230.5,120.6 Z"/>
    <path d="M44.016,199.4 L64.016,199.4 L90,280.6 L70,280.6 Z"/>
    <path d="M95.984,199.4 L115.984,199.4 L90,280.6 L70,280.6 Z"/>
  </g>
</svg>
